<svg width="7" height="10" viewBox="0 0 7 10" fill="none" xmlns="http://www.w3.org/2000/svg">
    <path d="M1.854 0.646895C1.78407 0.576788 1.6949 0.529023 1.59779 0.509657C1.50068 0.49029 1.40001 0.500193 1.30854 0.53811C1.21706 0.576028 1.13891 0.640252 1.08398 0.722642C1.02905 0.805031 0.999824 0.901874 1 1.00089V8.1729C1.00002 8.27183 1.02939 8.36854 1.0844 8.45077C1.1394 8.53301 1.21757 8.59708 1.309 8.63487C1.40043 8.67266 1.50102 8.68248 1.59804 8.66308C1.69505 8.64368 1.78413 8.59594 1.854 8.5259L5.439 4.9409C5.48556 4.89445 5.52251 4.83927 5.54771 4.77853C5.57292 4.71778 5.58589 4.65266 5.58589 4.58689C5.58589 4.52113 5.57292 4.45601 5.54771 4.39526C5.52251 4.33452 5.48556 4.27934 5.439 4.23289L1.854 0.647895V0.646895Z"
          stroke="#405EFF"/>
</svg>
